<?xml version="1.0" standalone="no"?>
<!DOCTYPE svg PUBLIC "-//W3C//DTD SVG 20010904//EN"
 "http://www.w3.org/TR/2001/REC-SVG-20010904/DTD/svg10.dtd">
<svg version="1.0" xmlns="http://www.w3.org/2000/svg"
 width="700.000000pt" height="700.000000pt" viewBox="0 0 700.000000 700.000000"
 preserveAspectRatio="xMidYMid meet">
<metadata>
Created by potrace 1.14, written by Peter Selinger 2001-2017
</metadata>
<g transform="translate(0.000000,700.000000) scale(0.100000,-0.100000)"
fill="#000000" stroke="none">
<path d="M1325 6993 c-496 -63 -943 -382 -1170 -833 -55 -109 -98 -231 -127
-361 l-23 -104 0 -2200 0 -2200 23 -104 c68 -301 198 -539 416 -757 217 -216
460 -350 749 -413 96 -21 100 -21 2312 -21 2212 0 2216 0 2312 21 289 63 532
197 749 413 216 217 350 460 413 749 21 96 21 100 21 2312 0 2212 0 2216 -21
2312 -63 289 -197 532 -413 749 -213 213 -434 336 -736 412 l-105 27 -2185 1
c-1202 1 -2198 -1 -2215 -3z m16 -602 c23 -18 24 -26 27 -154 l3 -134 92 -15
c107 -18 180 -44 261 -93 32 -19 60 -35 61 -35 2 0 8 15 15 34 18 57 80 72
127 32 l28 -24 0 -187 0 -187 -28 -24 c-15 -13 -39 -24 -51 -24 -36 0 -74 36
-82 78 -20 111 -116 196 -278 248 -230 72 -461 28 -605 -117 -83 -83 -115
-151 -120 -257 -4 -102 14 -156 73 -220 71 -78 154 -108 464 -172 261 -54 331
-74 432 -122 188 -90 280 -240 280 -456 0 -150 -47 -259 -160 -373 -112 -113
-245 -177 -437 -209 l-73 -12 0 -252 c0 -261 -6 -308 -40 -326 -32 -17 -70
-11 -95 15 l-25 24 0 270 0 269 -62 7 c-142 17 -267 62 -380 138 l-68 45 0
-38 c0 -56 -14 -85 -49 -100 -40 -16 -76 -6 -98 27 -16 24 -18 53 -18 223 0
107 3 207 8 222 11 40 49 62 92 54 40 -8 52 -25 65 -96 5 -28 24 -71 41 -96
31 -46 123 -120 190 -155 156 -79 458 -90 638 -23 293 110 406 430 218 622
-83 85 -149 111 -440 172 -258 54 -352 82 -466 137 -148 71 -224 163 -251 303
-59 312 154 602 498 676 l82 17 0 129 c0 124 1 130 25 153 29 30 74 32 106 6z
m3530 -3610 c24 -30 24 -72 0 -102 l-19 -24 -1146 -3 c-1013 -2 -1150 0 -1176
13 -52 27 -53 102 -2 129 24 13 173 15 1175 13 l1149 -2 19 -24z"/>
</g>
</svg>
